<svg xmlns="http://www.w3.org/2000/svg" version="1.1" xmlns:xlink="http://www.w3.org/1999/xlink" xmlns:svgjs="http://svgjs.dev/svgjs" width="2000" height="676" viewBox="0 0 2000 676"><g transform="matrix(1,0,0,1,-1.2121212121212466,0.4252681131463305)"><svg viewBox="0 0 396 134" data-background-color="#ffffff" preserveAspectRatio="xMidYMid meet" height="676" width="2000" xmlns="http://www.w3.org/2000/svg" xmlns:xlink="http://www.w3.org/1999/xlink"><g id="tight-bounds" transform="matrix(1,0,0,1,0.2400000000000091,-0.08429870881894885)"><svg viewBox="0 0 395.52 134.1685974176379" height="134.1685974176379" width="395.52"><g><svg viewBox="0 0 668.0581993714986 226.61921420668153" height="134.1685974176379" width="395.52"><g transform="matrix(1,0,0,1,272.5381993714987,64.68227399364604)"><svg viewBox="0 0 395.52 97.25466621938946" height="97.25466621938946" width="395.52"><g id="textblocktransform"><svg viewBox="0 0 395.52 97.25466621938946" height="97.25466621938946" width="395.52" id="textblock"><g><svg viewBox="0 0 395.52 97.25466621938946" height="97.25466621938946" width="395.52"><g transform="matrix(1,0,0,1,0,0)"><svg width="395.52" viewBox="3.32 -35.3 145.54000000000002 35.79" height="97.25466621938946" data-palette-color="#001f3f"><path d="M3.32-0.63L3.32-35.13 8.5-35.13 8.5-23.49 8.64-23.49Q8.81-23.63 9.33-24 9.84-24.37 10.66-24.73 11.47-25.1 12.56-25.38 13.65-25.66 15.01-25.66L15.01-25.66Q16.87-25.66 18.62-25.07 20.36-24.49 21.7-23.05 23.05-21.61 23.85-19.15 24.66-16.7 24.66-12.96L24.66-12.96Q24.66-9.59 23.68-7.08 22.71-4.57 21.04-2.88 19.38-1.2 17.18-0.35 14.97 0.49 12.5 0.49L12.5 0.49Q10.28 0.49 8.58 0.32 6.88 0.15 5.71-0.07L5.71-0.07Q4.35-0.32 3.32-0.63L3.32-0.63ZM8.5-20.34L8.5-3.83Q8.84-3.69 9.56-3.49 10.28-3.3 11.4-3.3L11.4-3.3Q15.19-3.3 17.18-5.81 19.17-8.33 19.17-12.96L19.17-12.96Q19.17-15.55 18.69-17.24 18.21-18.92 17.33-19.91 16.46-20.9 15.2-21.29 13.94-21.68 12.35-21.68L12.35-21.68Q11.69-21.68 11.01-21.47 10.33-21.26 9.77-21L9.77-21Q9.11-20.7 8.5-20.34L8.5-20.34ZM28.44-12.48L28.44-12.48Q28.44-15.7 29.31-18.16 30.17-20.63 31.75-22.29 33.32-23.95 35.51-24.8 37.69-25.66 40.33-25.66L40.33-25.66Q43.04-25.66 45.21-24.87 47.39-24.07 48.9-22.46 50.41-20.85 51.22-18.44 52.02-16.04 52.02-12.82L52.02-12.82Q52.02-9.59 51.21-7.1 50.39-4.61 48.86-2.93 47.34-1.25 45.18-0.38 43.02 0.49 40.33 0.49L40.33 0.49Q37.55 0.49 35.34-0.33 33.13-1.15 31.6-2.77 30.08-4.39 29.26-6.82 28.44-9.25 28.44-12.48ZM40.33-3.54L40.33-3.54Q41.94-3.54 43.12-4.24 44.31-4.93 45.07-6.16 45.82-7.4 46.19-9.09 46.56-10.79 46.56-12.82L46.56-12.82Q46.56-17.19 45.07-19.48 43.58-21.78 40.33-21.78L40.33-21.78Q38.69-21.78 37.49-21.08 36.28-20.39 35.48-19.14 34.69-17.9 34.3-16.19 33.91-14.48 33.91-12.48L33.91-12.48Q33.91-8.06 35.48-5.8 37.06-3.54 40.33-3.54ZM55.73-12.48L55.73-12.48Q55.73-15.7 56.6-18.16 57.47-20.63 59.04-22.29 60.62-23.95 62.8-24.8 64.99-25.66 67.62-25.66L67.62-25.66Q70.33-25.66 72.5-24.87 74.68-24.07 76.19-22.46 77.7-20.85 78.51-18.44 79.32-16.04 79.32-12.82L79.32-12.82Q79.32-9.59 78.5-7.1 77.68-4.61 76.15-2.93 74.63-1.25 72.47-0.38 70.31 0.49 67.62 0.49L67.62 0.49Q64.84 0.49 62.63-0.33 60.42-1.15 58.89-2.77 57.37-4.39 56.55-6.82 55.73-9.25 55.73-12.48ZM67.62-3.54L67.62-3.54Q69.23-3.54 70.42-4.24 71.6-4.93 72.36-6.16 73.12-7.4 73.48-9.09 73.85-10.79 73.85-12.82L73.85-12.82Q73.85-17.19 72.36-19.48 70.87-21.78 67.62-21.78L67.62-21.78Q65.99-21.78 64.78-21.08 63.57-20.39 62.78-19.14 61.98-17.9 61.59-16.19 61.2-14.48 61.2-12.48L61.2-12.48Q61.2-8.06 62.78-5.8 64.35-3.54 67.62-3.54ZM84.49 0L84.49-35.16 89.47-35.16 89.47-16.58 89.23-13.04 90.52-14.58 98.36-24.95 104.26-24.95 96.33-14.89 94.3-12.96 95.89-11.52 104.7 0 98.77 0 90.37-11.28 89.23-12.74 89.47-8.3 89.47 0 84.49 0ZM125.45-29.17L125.45-29.17Q124.77-29.17 124.17-29.42 123.57-29.66 123.12-30.08 122.67-30.49 122.4-31.04 122.13-31.59 122.13-32.23L122.13-32.23Q122.13-32.89 122.4-33.45 122.67-34.01 123.12-34.42 123.57-34.84 124.17-35.07 124.77-35.3 125.45-35.3L125.45-35.3Q126.13-35.3 126.75-35.07 127.36-34.84 127.81-34.42 128.26-34.01 128.53-33.45 128.8-32.89 128.8-32.23L128.8-32.23Q128.8-31.59 128.53-31.04 128.26-30.49 127.81-30.08 127.36-29.66 126.75-29.42 126.13-29.17 125.45-29.17ZM122.64-4.2L122.64-24.95 127.72-24.95 127.72-4.1 129.16-3.08 129.16 0 127.77 0 127.72-0.05 127.72 0Q125.3 0 123.97-0.98 122.64-1.95 122.64-4.2L122.64-4.2ZM136.36-6.98L136.36-21.17 133.16-21.17Q133.14-21.44 133.11-21.75L133.11-21.75Q133.09-22.02 133.08-22.39 133.07-22.75 133.07-23.19L133.07-23.19Q133.07-23.63 133.09-24.01 133.11-24.39 133.16-24.95L133.16-24.95 136.36-24.95 136.36-28.83 139.17-32.01 141.34-32.01 141.34-24.95 148.25-24.95Q148.3-24.71 148.34-24.37 148.37-24.02 148.37-23.71L148.37-23.71Q148.37-23.14 148.26-22.68 148.15-22.22 148.03-21.88L148.03-21.88Q147.89-21.48 147.69-21.17L147.69-21.17 141.34-21.17 141.34-7.01Q141.34-5.22 141.94-4.42 142.54-3.61 143.86-3.61L143.86-3.61Q144.42-3.61 145.04-3.75 145.66-3.88 146.23-4.08L146.23-4.08Q146.86-4.3 147.52-4.57L147.52-4.57Q148.01-3.93 148.29-3.32 148.57-2.71 148.69-2.22L148.69-2.22Q148.84-1.66 148.86-1.17L148.86-1.17Q148.18-0.71 147.32-0.34L147.32-0.34Q146.57-0.02 145.52 0.23 144.47 0.49 143.1 0.49L143.1 0.49Q141.2 0.49 139.91 0.01 138.63-0.46 137.84-1.4 137.05-2.34 136.7-3.75 136.36-5.15 136.36-6.98L136.36-6.98Z" opacity="1" transform="matrix(1,0,0,1,0,0)" fill="#fff" class="wordmark-text-0" data-fill-palette-color="primary" id="text-0"></path></svg></g></svg></g></svg></g></svg></g><g><svg viewBox="0 0 226.61921420668153 226.61921420668153" height="226.61921420668153" width="226.61921420668153"><g><svg></svg></g><g id="icon-0"><svg viewBox="0 0 226.61921420668153 226.61921420668153" height="226.61921420668153" width="226.61921420668153"><g><path d="M0 113.31c0-62.579 50.73-113.31 113.31-113.31 62.579 0 113.31 50.73 113.309 113.31 0 62.579-50.73 113.31-113.309 113.309-62.579 0-113.31-50.73-113.31-113.309zM113.31 217.849c57.735 0 104.539-46.804 104.539-104.539 0-57.735-46.804-104.539-104.539-104.539-57.735 0-104.539 46.804-104.539 104.539 0 57.735 46.804 104.539 104.539 104.539z" data-fill-palette-color="accent" fill="#2ecc40" stroke="transparent"></path></g><g transform="matrix(1,0,0,1,48.391232982613815,55.39413912291743)"><svg viewBox="0 0 129.8367482414539 115.83093596084667" height="115.83093596084667" width="129.8367482414539"><g><svg xmlns="http://www.w3.org/2000/svg" xmlns:xlink="http://www.w3.org/1999/xlink" version="1.1" x="0" y="0" viewBox="8.386999999999999 13.004999999999999 84.192 75.11" enable-background="new 0 0 100 100" xml:space="preserve" height="115.83093596084667" width="129.8367482414539" class="icon-cg-0" data-fill-palette-color="accent" id="cg-0"><g fill="#2ecc40" data-fill-palette-color="accent"><path d="M49.569 22.967c-9.975-5.691-20.677-9.125-31.045-9.962v58.351c10.367 0.814 21.05 4.154 31.045 9.699V22.967z" fill="#2ecc40" data-fill-palette-color="accent"></path><path d="M82.444 13.005c-10.368 0.838-21.071 4.271-31.045 9.962v58.087c9.993-5.545 20.679-8.885 31.045-9.699V13.005z" fill="#2ecc40" data-fill-palette-color="accent"></path><path d="M49.229 84.073c0.814 0.278 1.671 0.29 2.485 0.012 11.657-5.043 23.865-7.313 35.798-6.79V19.524c-1.074-0.048-2.155-0.059-3.24-0.055v53.594l-0.852 0.056c-10.672 0.697-21.732 4.177-32.021 10.048-0.594 0.203-1.237 0.203-1.83 0-10.29-5.871-21.349-9.351-32.021-10.048l-0.854-0.056V19.469c-1.084-0.004-2.166 0.006-3.239 0.055v57.771C25.387 76.771 37.569 79.03 49.229 84.073z" fill="#2ecc40" data-fill-palette-color="accent"></path><path d="M92.579 26.009c-1.07-0.149-2.157-0.228-3.237-0.335v53.55l-0.968-0.056c-12.195-0.699-25.06 1.777-36.975 7.065l-0.916 0.381-0.915-0.381c-11.917-5.288-24.781-7.765-36.976-7.065l-0.967 0.056v-53.55c-1.081 0.108-2.168 0.187-3.238 0.335v58.707c0.594 0.307 1.044 0.748 1.044 0.748 12.951-1.75 26.393-1.536 39.18 2.651 0.588-0.058 1.212-0.095 1.873-0.095 0.661 0 1.285 0.037 1.872 0.095 12.785-4.188 26.229-4.401 39.179-2.651 0 0 0.474-0.462 1.044-0.748V26.009z" fill="#2ecc40" data-fill-palette-color="accent"></path></g></svg></g></svg></g></svg></g></svg></g></svg></g><defs></defs></svg><rect width="395.52" height="134.1685974176379" fill="none" stroke="none" visibility="hidden"></rect></g></svg></g></svg>
